<svg xmlns="http://www.w3.org/2000/svg" width="560" height="420" viewBox="0 0 560 420" fill="none">
  <rect width="560" height="420" rx="24" fill="#FFFFFF"/>
  <rect x="0" y="0" width="560" height="420" rx="24" stroke="#E2E8F0" stroke-width="1"/>
  <rect x="40" y="48" width="480" height="12" rx="6" fill="#E2E8F0"/>
  <rect x="40" y="76" width="400" height="12" rx="6" fill="#F1F5F9"/>
  <rect x="40" y="104" width="440" height="12" rx="6" fill="#F1F5F9"/>
  <rect x="40" y="132" width="360" height="12" rx="6" fill="#F1F5F9"/>
  <circle cx="160" cy="260" r="28" fill="#6366F1" opacity="0.9"/>
  <path d="M160 248v24M148 260h24" stroke="white" stroke-width="3" stroke-linecap="round"/>
  <circle cx="280" cy="220" r="22" fill="#6366F1" opacity="0.75"/>
  <circle cx="380" cy="280" r="22" fill="#6366F1" opacity="0.75"/>
  <circle cx="320" cy="300" r="22" fill="#6366F1" opacity="0.65"/>
  <circle cx="240" cy="280" r="22" fill="#6366F1" opacity="0.55"/>
  <circle cx="280" cy="260" r="36" fill="#0F172A" opacity="0.08"/>
  <circle cx="280" cy="260" r="18" stroke="#0F172A" stroke-width="3" fill="none"/>
  <path d="M280 250v20M270 260h20" stroke="#0F172A" stroke-width="2.5" stroke-linecap="round"/>
</svg>
